<svg xmlns="http://www.w3.org/2000/svg" viewBox="90 376 848 276"><path fill="#fafafa" d="M139.265 377.691c3.046-.429 9.441-.141 12.684-.219 17.554-.422 25.639.577 41.901 6.462 11.232-6.136 17.515-5.23 29.916-5.158l26.322.162c10.349.059 36.391-1.291 44.823.942 6.279 1.663 11.684 5.52 14.894 11.208 1.807 3.2 2.891 6.726 3.378 10.359.969 7.236.953 53.684-.737 59.189-1.367 4.452-4.473 8.483-8.662 10.575-.527.263-1.07.495-1.584.783-1.077.604-1.711.939-2.031 2.173 2.321 2.908 25.29 1.901 30.024 1.896.193-14.39-.159-28.835.066-43.23.081-5.181.075-9.708 1.189-14.809a52.8 52.8 0 0 1 9.131-19.961c13.573-18.032 33.47-19.96 53.936-19.643 20.24.313 31.14.279 47.976 13.078 15.536-13.306 29.082-12.778 48.195-13.063 19.702-.294 31.901 1.587 47.843 14.118 16.971-16.703 48.435-18.332 68.741-7.427 23.982-8.495 35.146-10.687 59.109-.494 2.429-1.705 7.349-4.92 10.702-5.137 16.437-1.062 36.015-1.181 52.402.254 2.345.205 7.045 3.373 8.891 4.71 15.95-6.663 28.052-6.005 44.898-5.95 14.248.046 25.161 4.56 36.566 12.787 14.433-12.082 27.453-13.377 45.597-12.842 5.88.174 12.407-.284 18.324.253a53.8 53.8 0 0 1 36.8 19.343c15.595 19.209 12.519 40.153 12.612 63.101.064 16.05 4.017 31.028-10.108 41.888a44 44 0 0 1 2.202 2.591c2.971 3.717 6.773 10.597 7.345 15.285 1.5 13.927.995 28.461.947 42.526-.112 32.421 4.756 52.584-23.554 74.71-15.113 10.827-26.999 10.149-44.674 10.202-18.101.055-30.803-2.632-44.578-14.809a49.6 49.6 0 0 1-18.43 10.902c-10.944 3.58-33.927 3.495-45.569 1.035-4.831-1.021-10.338-3.678-14.705-5.913-6.545 5.544-11.257 7.551-19.966 7.349-25.413-.588-50.75-.086-76.168-.254l-51.027-.05c-18.228.026-36.906 1.102-55.122-.289-3.93-.299-7.874-3.262-10.7-5.868-14.462 8.155-21.541 6.907-37.074 7.37-22.715.678-30.089-2.393-48.384-14.678-9.342 7.572-20.071 13.396-32.302 13.512-23.235.222-45.374 2.694-63.637-15.316-21.956-21.65-16.979-41.457-17.499-68.422-10.563-.056-21.273.082-31.833.145-10.503.062-15.039-.184-23.361-7.047l.039 48.586c.007 8.071.585 16.657-.365 24.676-.288 2.436-.94 4.636-2.16 6.77-2.995 5.236-8.242 8.469-14.006 9.888-4.63 1.14-45.156 1.31-50.704.356-4.556-.783-8.141-2.632-12.044-5.006-14.806 7.444-22.036 5.933-37.681 6.28-22.781.505-40.778-3.344-55.249-22.496-15.133-20.028-11.026-41.998-11.405-65.408-.148-9.105-.435-18.916.363-27.989.594-6.457 5.836-10.299 10.809-13.797-5.157-5.205-10.454-15.01-10.86-22.434-.958-17.527.008-35.34-.378-52.943-.163-7.435-.454-17.478 1.008-24.662a50.4 50.4 0 0 1 9.522-20.566c9.334-11.864 22.696-17.836 37.402-19.584"/><path fill="#111" d="M139.373 387.689c4.193-.469 10.856-.123 15.236-.249 18.996-.549 26.61.687 43.248 9.901 2.167-7.073 6.481-8.784 13.525-8.738 26.46.175 53.02-.428 79.451.269 2.555.067 6.493 2.866 8.399 4.601 4.859 4.424 4.992 10.124 5.13 16.222-.247 15.834.878 32.138-.55 47.882-.292 1.533-2.084 4.262-3.22 5.157-7.103 5.591-25.62 3.273-34.381 3.202l-.106 8.018c14.429-.184 21.415-1.813 30.492 11.219 14.262.173 28.8.043 43.085.059.173-17.262-.114-34.655-.091-51.92.017-12.601 1.943-23.23 11.413-32.392 15.098-14.607 34.416-13.214 53.784-12.93 15.909.233 27.032 5.671 37.847 16.877 14.42-15.58 27.249-16.471 47.473-16.635 19.713-.16 35.481 1.723 48.914 18.675 18.012-24.338 44.331-21.902 69.168-10.513 22.15-12.019 40.752-11.745 61.927 1.641 1.934-4.573 4.281-8.057 9.582-8.68 9.761-.813 19.886-.881 29.721-.733 12.828.194 17.842-2.63 26.369 8.058 14.214-7.873 21.085-8.448 36.634-8.539 21.169-.125 32.401.511 48.052 16.09 17.803-18.372 32.712-16.079 56.386-16.077 10.917.001 21.051 2.469 29.713 9.318a46.28 46.28 0 0 1 17.516 31.161c.913 8.47.054 21.269.215 30.167-.246 8.959.7 18.107-.192 27.024-1.161 11.6-11.71 10.845-20.195 11.252 8.374 8.819 20.473 16.331 20.755 30.019.484 23.456.422 47.035.059 70.493-.059 3.831-1.181 7.952-2.365 11.559a48.3 48.3 0 0 1-13.187 18.857c-12.327 10.852-22.743 10.61-38.201 10.886-22.346.399-33.669.277-49.197-17.538-14.756 15.502-23.765 16.477-44.602 16.562-19.744.08-22.575-1.29-39.226-11.647-3.343 7.794-5.581 10.912-14.525 11.063-11.84.199-23.666-.019-35.5.056l-91.918.123-36.332.223c-12.284.034-20.933 2.647-27.808-9.061-10.448 6.808-17.707 9.595-30.112 9.555-29.498-.095-35.988 2.344-56.952-17.74a320 320 0 0 1-2.952 2.988c-16.191 16.159-24.478 13.525-45.554 14.273-24.188.858-41.755-6.978-53.009-29.399-4.654-9.274-3.683-18.513-3.644-28.67l.13-25.824c-9.159-.03-46.983 1.238-53.142-1.142-3.773-1.458-5.884-4.498-7.489-8.049l-12.992-.125c-.503 26.889.184 53.903-.315 80.797.033 6.376-4.974 11.624-11.621 11.724-14.583.219-29.845.35-44.431-.065-4.888-.139-8.788-3.972-11.485-7.737-16.12 9.945-21.54 8.936-40.123 8.988-15.409.385-28.396-.183-40.694-10.895-22.895-19.944-15.236-50.254-16.657-76.921-.329-6.17-.83-17.906 3.174-22.461 3.7-4.21 14.656-3.099 19.969-3.003-8.917-8.436-21.824-16.805-22.677-30.486-1.082-17.331-.016-35.023-.489-52.425-.182-6.688-.327-15.367.936-21.864a38.66 38.66 0 0 1 7.343-16.458c7.623-9.836 18.195-14.55 30.288-16.043"/><path fill="#fafafa" d="M606.867 413.766q1.076-1.148 2.182-2.267c14.209-14.485 38.562-17.911 53.896-2.76 11.604 11.467 9.956 30.051 9.954 45.193l-.008 36.942.145 128.517-38.36.026c.101-14.963 1.224-167.113-.597-170.784-.551-1.111-1.623-1.86-2.835-2.076-1.126-.202-2.425.089-3.32.814-1.113.902-1.482 2.501-1.615 3.858-.453 4.633-.045 9.716-.03 14.388l.06 29.942.019 94.852-.117 28.904c-12.287.22-25.164.033-37.498.039l-.047-125.329c-.01-12.171-.011-24.342.034-36.512-.273-3.306 1.258-9.75-2.967-10.98-3.95-1.151-5.276 4.26-5.345 7.12-.14 5.767-.02 11.784.03 17.57q.147 16.165.07 32.331l-.032 115.937-38.632-.034-.109-118.8.091-44.328c.131-25.696-1.731-53.158 31.327-57.152 14.594-1.817 24.405 4.088 33.704 14.589m-112.088-14.02c10.948-.092 19.449.742 27.701 8.821 10.733 10.508 9.58 24.592 9.629 38.31l.031 31.192.123 100.892c.009 12.45-.695 23.012-10.047 32.516-10.718 10.893-26.002 9.038-40.305 8.976-28.722.104-37.697-14.357-37.885-41.672l.043-101.13-.022-29.963c-.006-6.532-.246-15.869.868-22.154a31.2 31.2 0 0 1 8.767-16.556c11.185-11.15 26.229-9.155 41.097-9.232"/><path fill="#111" d="M486.872 443.418c2.107.007 3.071-.002 4.726 1.258 1.543 2.552.959 25.782.953 31.025l.027 47.543-.001 33.083c-.006 5.757.062 11.687-.203 17.44-.075 1.614-1.145 2.689-2.212 3.839-2.136.018-3.128.036-4.715-1.329-1.541-2.442-.993-13.936-.995-17.374l-.008-29.076c-.003-27.179-.027-54.396.066-81.573.01-2.778.309-2.859 2.362-4.836"/><path fill="#e62429" d="M136.969 398.584c1.668-.145 5.839-.231 7.568-.17 16.723.589 33.47-3.536 46.442 9.642a23.9 23.9 0 0 1 6.405 11.485c1.096 4.89.744 17.154.743 22.549l-.045 37.194c-7.682-.22-27.833 1.05-33.898-1.075-10.686-3.746-1.837-25.549-5.916-33.621-.658-1.302-1.95-2.436-3.418-2.725-.928-.183-1.833.133-2.471.822-2.391 2.581-1.309 30.19-1.163 35.572 10.693 10.408 22.848 20.041 34.256 29.645 4.371 3.68 9.434 7.248 12.801 11.87 1.159 5.14 1.275 69.808.137 76.213a27.3 27.3 0 0 1-5.872 12.704c-6.143 7.469-14.038 10.451-23.413 11.29l-18.251.112c-12.132.055-22.44.61-31.755-8.499-10.636-10.399-8.476-25.976-8.474-39.495l-.096-34.519c6.972.08 33.944-.902 38.383 1.121 5.875 6.185-2.177 34.656 4.92 39.688 1.989.371 1.106.53 2.772-.243 2.336-2.846 2.328-5.844 2.324-9.39a5376 5376 0 0 0-.145-29.512c-9.321-8.603-18.912-16.823-28.503-25.118-5.172-4.474-11.007-8.866-15.553-13.983-1.572-1.77-2.614-3.337-3.202-5.632-1.667-6.511-1.447-60.509-.39-68.937.512-4.092 1.419-8.172 3.643-11.698 4.894-7.763 13.351-13.156 22.171-15.29"/><path fill="#fafafa" d="M854.808 399.731c8.66-.025 25.311-1.047 32.784 1.138 19.859 5.805 18.323 31.18 18.332 45.756l-.009 31.804c-8.887.071-22.253 1.104-30.663-.076-1.376-.193-2.887-.512-3.793-1.672-4.684-6.002 1.732-29.302-3.111-34.131-.673-.671-1.268-.892-2.179-.945-1.425-.081-2.762.342-3.787 1.351-1.996 1.965-.909 28.428-.884 32.687 12.219 12.629 25.289 25.075 38.301 36.878 6.222 5.645 6.729 11.357 6.669 19.293-.047 6.322-.114 12.721-.128 19.053l.139 34.621c-.05 10.843-1.834 18.413-9.882 26.282-9.821 9.601-17.6 9.089-30.094 9.007-12.553.104-25.828 1.714-35.517-8.028-10.274-10.331-8.052-25.638-8.029-38.991q.084-18.876-.135-37.751c52.447-.043 35.004-2.73 39.024 40.713.075.804 1.783 1.905 2.712 2.025 6.735.865 5.076-9.688 5.083-13.983l-.009-23.229c-2.53-3.677-9.082-10.156-12.32-13.489q-9.937-10.274-20.025-20.402c-5.889-5.863-13.464-11.699-13.836-20.654-.651-15.674-.389-31.402-.542-47.089-.055-5.593-.231-12.006.927-17.455a27.7 27.7 0 0 1 6.097-12.393c6.655-7.644 15.273-9.724 24.875-10.32m-468.886.526c13.468-.145 30.182-2.552 40.625 7.884 11.557 11.548 9.406 25.108 9.427 40.303l.05 36.95-38.528-.02.022-25.507c.004-4.972 1.958-16.483-4.57-16.649-3.112 1.161-3.792 4.701-3.797 7.729-.014 8.681.202 17.36.226 26.045l.068 58.406-.039 28.492c-.016 3.678-1.887 21.192 6.3 17.829 2.813-3.27 1.91-15.469 1.877-20.345l-.058-24.862 24.225-.009 14.149.033.086 35.229c.017 7.03.498 18.49-1.1 24.877a32 32 0 0 1-7.687 14.034c-5.787 6.125-13.61 9.018-21.963 8.847-15.981-.328-35.241 3.229-47.837-9.127-6.514-6.391-8.056-12.157-8.083-20.643-.121-37.124.093-74.252.104-111.365l.018-35.496c.011-12.311-1.694-23.943 8.029-33.501 8.785-8.637 16.802-9.022 28.456-9.134m370.807-.129q2.366-.113 4.736-.173c14.064-.345 32.493-2.657 43.11 7.777a28.4 28.4 0 0 1 7.819 13.931c1.177 5.297.682 16.728.712 22.737q.197 20.631.129 41.262l-36.08-.087c-.113-8.636.137-17.325.035-25.957-.045-3.86.756-13.515-1.75-16.294-2.115-1.101-4.071-.789-5.743 1.048-.607.758-.941 1.899-.934 2.855.067 9.741.079 19.484.053 29.225q-.17 33.296.06 66.591c.057 9.789.025 19.583.022 29.345-.001 2.516 2.947 6.475 6.159 5.204 2.083-2.51 2.126-6.065 2.124-9.22a8388 8388 0 0 1 .019-31.727c5.584-.098 11.444-.015 17.05-.021a748 748 0 0 1 18.953.083l.172 35.55c.009 5.735.294 16.293-.588 21.694a29.4 29.4 0 0 1-3.371 9.693c-3.543 6.311-11.454 13.532-18.442 14.752-14.44 2.247-33.075 3.781-46.159-3.679-19.066-10.872-15.283-33.03-15.269-52.135l.001-54.931-.027-53.34c-.007-24.705-4.102-48.189 27.209-54.183"/><path fill="#e62429" d="m207.805 400.651 78.107-.001.019 47.001-38.318-.048q-.119 18.523.199 37.042l30.504-.021q.206 20.768.02 41.538l-30.498-.054-.036 24.138-.178 68.385a1548 1548 0 0 0-39.962.282c-.489-23.423.233-49.3.248-73.001z"/><path fill="#fafafa" d="m681.506 401.727 38.261.098.135 139.788c-.033 25.488.271 51.507-.139 76.935-12.615.192-25.604.047-38.248.058l-.02-139.772c-.023-25.221-.517-52.027.011-77.107"/><path fill="#e62429" d="M287.609 498.883c16.084-.354 34.612.053 50.89.093q.129 18.263.063 36.524l-51.057.035q-.061-18.326.104-36.652"/></svg>