<svg width="0" height="0" class="hidden">
  <symbol xmlns="http://www.w3.org/2000/svg" fill="currentcolor" viewBox="0 -960 960 960" id="arrow-back">
    <path d="m313-440 224 224-57 56-320-320 320-320 57 56-224 224h487v80z"></path>
  </symbol>
  <symbol xmlns="http://www.w3.org/2000/svg" fill="currentcolor" viewBox="0 -960 960 960" id="arrow-forward">
    <path d="M647-440H160v-80h487L423-744l57-56 320 320-320 320-57-56z"></path>
  </symbol>
  <symbol xmlns="http://www.w3.org/2000/svg" fill="currentcolor" viewBox="0 -960 960 960" id="calendar-month">
    <path d="M200-80q-33 0-56.5-23.5T120-160v-560q0-33 23.5-56.5T200-800h40v-80h80v80h320v-80h80v80h40q33 0 56.5 23.5T840-720v560q0 33-23.5 56.5T760-80zm0-80h560v-400H200zm0-480h560v-80H200zm0 0v-80zm280 240q-17 0-28.5-11.5T440-440t11.5-28.5T480-480t28.5 11.5T520-440t-11.5 28.5T480-400m-188.5-11.5Q280-423 280-440t11.5-28.5T320-480t28.5 11.5T360-440t-11.5 28.5T320-400t-28.5-11.5M640-400q-17 0-28.5-11.5T600-440t11.5-28.5T640-480t28.5 11.5T680-440t-11.5 28.5T640-400M480-240q-17 0-28.5-11.5T440-280t11.5-28.5T480-320t28.5 11.5T520-280t-11.5 28.5T480-240m-188.5-11.5Q280-263 280-280t11.5-28.5T320-320t28.5 11.5T360-280t-11.5 28.5T320-240t-28.5-11.5M640-240q-17 0-28.5-11.5T600-280t11.5-28.5T640-320t28.5 11.5T680-280t-11.5 28.5T640-240"></path>
  </symbol>
  <symbol xmlns="http://www.w3.org/2000/svg" fill="currentcolor" viewBox="0 -960 960 960" id="cancel">
    <path d="m336-280 144-144 144 144 56-56-144-144 144-144-56-56-144 144-144-144-56 56 144 144-144 144zM480-80q-83 0-156-31.5T197-197t-85.5-127T80-480t31.5-156T197-763t127-85.5T480-880t156 31.5T763-763t85.5 127T880-480t-31.5 156T763-197t-127 85.5T480-80m0-80q134 0 227-93t93-227-93-227-227-93-227 93-93 227 93 227 227 93m0-320"></path>
  </symbol>
  <symbol xmlns="http://www.w3.org/2000/svg" fill="currentcolor" viewBox="0 -960 960 960" id="check-circle">
    <path d="m424-296 282-282-56-56-226 226-114-114-56 56zm56 216q-83 0-156-31.5T197-197t-85.5-127T80-480t31.5-156T197-763t127-85.5T480-880t156 31.5T763-763t85.5 127T880-480t-31.5 156T763-197t-127 85.5T480-80m0-80q134 0 227-93t93-227-93-227-227-93-227 93-93 227 93 227 227 93m0-320"></path>
  </symbol>
  <symbol xmlns="http://www.w3.org/2000/svg" fill="currentcolor" viewBox="0 -960 960 960" id="check">
    <path d="M382-240 154-468l57-57 171 171 367-367 57 57z"></path>
  </symbol>
  <symbol xmlns="http://www.w3.org/2000/svg" fill="currentcolor" viewBox="0 -960 960 960" id="close">
    <path d="m256-200-56-56 224-224-224-224 56-56 224 224 224-224 56 56-224 224 224 224-56 56-224-224z"></path>
  </symbol>
  <symbol xmlns="http://www.w3.org/2000/svg" fill="currentcolor" viewBox="0 -960 960 960" id="delete">
    <path d="M280-120q-33 0-56.5-23.5T200-200v-520h-40v-80h200v-40h240v40h200v80h-40v520q0 33-23.5 56.5T680-120zm400-600H280v520h400zM360-280h80v-360h-80zm160 0h80v-360h-80zM280-720v520z"></path>
  </symbol>
  <symbol xmlns="http://www.w3.org/2000/svg" fill="currentcolor" viewBox="0 -960 960 960" id="delivery-truck-speed">
    <path d="M195-195q-35-35-35-85H60l18-80h113q17-19 40-29.5t49-10.5 49 10.5 40 29.5h167l84-360H182l4-17q6-28 27.5-45.5T264-800h456l-37 160h117l120 160-40 200h-80q0 50-35 85t-85 35-85-35-35-85H400q0 50-35 85t-85 35-85-35m442-245h193l4-21-74-99h-95zm-19-273 2-7-84 360 2-7 34-146zM20-427l20-80h220l-20 80zm80-146 20-80h260l-20 80zm180 333q17 0 28.5-11.5T320-280t-11.5-28.5T280-320t-28.5 11.5T240-280t11.5 28.5T280-240m400 0q17 0 28.5-11.5T720-280t-11.5-28.5T680-320t-28.5 11.5T640-280t11.5 28.5T680-240"></path>
  </symbol>
  <symbol xmlns="http://www.w3.org/2000/svg" fill="currentcolor" viewBox="0 0 24 24" id="facebook">
    <path d="M12 2.04c-5.5 0-10 4.49-10 10.02 0 5 3.66 9.15 8.44 9.9v-7H7.9v-2.9h2.54V9.85c0-2.51 1.49-3.89 3.78-3.89 1.09 0 2.23.19 2.23.19v2.47h-1.26c-1.24 0-1.63.77-1.63 1.56v1.88h2.78l-.45 2.9h-2.33v7a10 10 0 0 0 8.44-9.9c0-5.53-4.5-10.02-10-10.02"></path>
  </symbol>
  <symbol xmlns="http://www.w3.org/2000/svg" fill="currentcolor" viewBox="0 0 24 24" id="favorite-filled">
    <path d="M20.381 6.068c-2.226-2.87-6.611-2.51-8.381.56-1.77-3.07-6.155-3.43-8.381-.56l-.31.398a5.953 5.953 0 0 0 .628 7.989l6.97 6.548c.104.098.218.204.326.287.123.095.296.205.526.25q.242.048.482 0c.23-.045.403-.155.526-.25.108-.082.222-.19.326-.287l6.97-6.548a5.953 5.953 0 0 0 .627-7.989z"></path>
  </symbol>
  <symbol xmlns="http://www.w3.org/2000/svg" fill="currentcolor" viewBox="0 0 24 24" id="favorite">
    <path d="M19.196 6.987c-1.626-2.096-4.89-1.744-6.033.65-.466.978-1.86.978-2.327 0-1.142-2.394-4.406-2.746-6.032-.65l-.31.399a4.453 4.453 0 0 0 .47 5.976l6.953 6.53q.045.045.083.079l.083-.078 6.953-6.531a4.453 4.453 0 0 0 .47-5.976zM12 6.63c1.77-3.072 6.155-3.43 8.381-.561l.31.398a5.953 5.953 0 0 1-.628 7.989l-6.97 6.548a5 5 0 0 1-.326.287 1.25 1.25 0 0 1-.526.25 1.3 1.3 0 0 1-.482 0 1.25 1.25 0 0 1-.526-.25c-.108-.082-.222-.19-.326-.287l-6.97-6.548a5.953 5.953 0 0 1-.627-7.989l.309-.398c2.226-2.87 6.611-2.51 8.381.56"></path>
  </symbol>
  <symbol xmlns="http://www.w3.org/2000/svg" fill="currentcolor" viewBox="0 -960 960 960" id="featured-seasonal-and-gifts">
    <path d="M160-80v-440H80v-240h208q-5-9-6.5-19t-1.5-21q0-50 35-85t85-35q23 0 43 8.5t37 23.5q17-16 37-24t43-8q50 0 85 35t35 85q0 11-2 20.5t-6 19.5h208v240h-80v440zm371.5-748.5Q520-817 520-800t11.5 28.5T560-760t28.5-11.5T600-800t-11.5-28.5T560-840t-28.5 11.5M360-800q0 17 11.5 28.5T400-760t28.5-11.5T440-800t-11.5-28.5T400-840t-28.5 11.5T360-800M160-680v80h280v-80zm280 520v-360H240v360zm80 0h200v-360H520zm280-440v-80H520v80z"></path>
  </symbol>
  <symbol xmlns="http://www.w3.org/2000/svg" fill="currentcolor" viewBox="0 0 20 20" id="github">
    <path d="M10 0c5.523 0 10 4.59 10 10.253 0 4.529-2.862 8.371-6.833 9.728-.507.101-.687-.219-.687-.492 0-.338.012-1.442.012-2.814 0-.956-.32-1.58-.679-1.898 2.227-.254 4.567-1.121 4.567-5.059 0-1.12-.388-2.034-1.03-2.752.104-.259.447-1.302-.098-2.714 0 0-.838-.275-2.747 1.051A9.4 9.4 0 0 0 10 4.958a9.4 9.4 0 0 0-2.503.345C5.586 3.977 4.746 4.252 4.746 4.252c-.543 1.412-.2 2.455-.097 2.714-.639.718-1.03 1.632-1.03 2.752 0 3.928 2.335 4.808 4.556 5.067-.286.256-.545.708-.635 1.371-.57.262-2.018.715-2.91-.852 0 0-.529-.985-1.533-1.057 0 0-.975-.013-.068.623 0 0 .655.315 1.11 1.5 0 0 .587 1.83 3.369 1.21.005.857.014 1.665.014 1.909 0 .271-.184.588-.683.493C2.865 18.627 0 14.783 0 10.253 0 4.59 4.478 0 10 0" fill-rule="evenodd"></path>
  </symbol>
  <symbol xmlns="http://www.w3.org/2000/svg" viewBox="0 0 24 24" id="instagram">
    <path fill-rule="evenodd" clip-rule="evenodd" d="M12 18a6 6 0 1 0 0-12 6 6 0 0 0 0 12m0-2a4 4 0 1 0 0-8 4 4 0 0 0 0 8" fill="currentcolor"></path>
    <path d="M18 5a1 1 0 1 0 0 2 1 1 0 0 0 0-2" fill="currentcolor"></path>
    <path fill-rule="evenodd" clip-rule="evenodd" d="M1.654 4.276C1 5.56 1 7.24 1 10.6v2.8c0 3.36 0 5.04.654 6.324a6 6 0 0 0 2.622 2.622C5.56 23 7.24 23 10.6 23h2.8c3.36 0 5.04 0 6.324-.654a6 6 0 0 0 2.622-2.622C23 18.44 23 16.76 23 13.4v-2.8c0-3.36 0-5.04-.654-6.324a6 6 0 0 0-2.622-2.622C18.44 1 16.76 1 13.4 1h-2.8c-3.36 0-5.04 0-6.324.654a6 6 0 0 0-2.622 2.622M13.4 3h-2.8c-1.713 0-2.878.002-3.778.075-.877.072-1.325.202-1.638.361a4 4 0 0 0-1.748 1.748c-.16.313-.29.761-.36 1.638C3.001 7.722 3 8.887 3 10.6v2.8c0 1.713.002 2.878.075 3.778.072.877.202 1.325.361 1.638a4 4 0 0 0 1.748 1.748c.313.16.761.29 1.638.36.9.074 2.065.076 3.778.076h2.8c1.713 0 2.878-.002 3.778-.075.877-.072 1.325-.202 1.638-.361a4 4 0 0 0 1.748-1.748c.16-.313.29-.761.36-1.638.074-.9.076-2.065.076-3.778v-2.8c0-1.713-.002-2.878-.075-3.778-.072-.877-.202-1.325-.361-1.638a4 4 0 0 0-1.748-1.748c-.313-.16-.761-.29-1.638-.36C16.278 3.001 15.113 3 13.4 3" fill="currentcolor"></path>
  </symbol>
  <symbol xmlns="http://www.w3.org/2000/svg" viewBox="0 -960 960 960" id="keyboard-arrow-left" fill="currentcolor">
    <path d="M560-240 320-480l240-240 56 56-184 184 184 184z" />
  </symbol>
  <symbol xmlns="http://www.w3.org/2000/svg" viewBox="0 -960 960 960" id="keyboard-arrow-right" fill="currentcolor">
    <path d="M504-480 320-664l56-56 240 240-240 240-56-56z"/>
  </symbol>
  <symbol xmlns="http://www.w3.org/2000/svg" viewBox="0 -960 960 960" id="keyboard-arrow-up" fill="currentcolor">
    <path d="M480-528 296-344l-56-56 240-240 240 240-56 56z"/>
  </symbol>
  <symbol xmlns="http://www.w3.org/2000/svg" fill="currentcolor" viewBox="0 -960 960 960" id="mail">
    <path d="M160-160q-33 0-56.5-23.5T80-240v-480q0-33 23.5-56.5T160-800h640q33 0 56.5 23.5T880-720v480q0 33-23.5 56.5T800-160zm320-280L160-640v400h640v-400zm0-80 320-200H160zM160-640v-80 480z"></path>
  </symbol>
  <symbol xmlns="http://www.w3.org/2000/svg" fill="currentcolor" viewBox="0 -960 960 960" id="page-info">
    <path d="M603.5-193.5Q560-237 560-300t43.5-106.5T710-450t106.5 43.5T860-300t-43.5 106.5T710-150t-106.5-43.5m156-57Q780-271 780-300t-20.5-49.5T710-370t-49.5 20.5T640-300t20.5 49.5T710-230t49.5-20.5M160-260v-80h320v80zm-16.5-293.5Q100-597 100-660t43.5-106.5T250-810t106.5 43.5T400-660t-43.5 106.5T250-510t-106.5-43.5m156-57Q320-631 320-660t-20.5-49.5T250-730t-49.5 20.5T180-660t20.5 49.5T250-590t49.5-20.5M480-620v-80h320v80zm-230-40"/>
  </symbol>
  <symbol xmlns="http://www.w3.org/2000/svg" fill="currentcolor" viewBox="0 -960 960 960" id="pause-circle">
    <path d="M360-320h80v-320h-80zm160 0h80v-320h-80zM480-80q-83 0-156-31.5T197-197t-85.5-127T80-480t31.5-156T197-763t127-85.5T480-880t156 31.5T763-763t85.5 127T880-480t-31.5 156T763-197t-127 85.5T480-80m0-80q134 0 227-93t93-227-93-227-227-93-227 93-93 227 93 227 227 93m0-320"/>
  </symbol>
  <symbol xmlns="http://www.w3.org/2000/svg" fill="currentcolor" viewBox="0 -960 960 960" id="person">
    <path d="M367-527q-47-47-47-113t47-113 113-47 113 47 47 113-47 113-113 47-113-47M160-160v-112q0-34 17.5-62.5T224-378q62-31 126-46.5T480-440t130 15.5T736-378q29 15 46.5 43.5T800-272v112zm80-80h480v-32q0-11-5.5-20T700-306q-54-27-109-40.5T480-360t-111 13.5T260-306q-9 5-14.5 14t-5.5 20zm296.5-343.5Q560-607 560-640t-23.5-56.5T480-720t-56.5 23.5T400-640t23.5 56.5T480-560t56.5-23.5M480-240"></path>
  </symbol>
  <symbol xmlns="http://www.w3.org/2000/svg" fill="currentcolor" viewBox="0 0 20 20" id="pinterest">
    <path d="M9.876 0C4.399 0 0 4.435 0 9.959c0 4.1 2.407 7.53 5.893 9.12 0-1.867-.013-1.626 1.41-7.699-.782-1.578-.174-4.183 1.577-4.183 2.43 0 .779 3.603.498 5.02-.249 1.088.581 1.925 1.577 1.925 1.909 0 3.153-2.427 3.153-5.271 0-2.176-1.493-3.767-4.066-3.767-4.575 0-5.735 5.096-4.149 6.695.399.604 0 .632 0 1.423-.277.836-2.49-.38-2.49-3.514 0-2.846 2.324-6.193 7.054-6.193 3.734 0 6.224 2.761 6.224 5.69 0 3.933-2.158 6.779-5.311 6.779-1.079 0-2.075-.586-2.407-1.256-.603 2.346-.725 3.535-1.66 4.854.913.25 1.826.418 2.822.418C15.602 20 20 15.565 20 10.042 19.752 4.435 15.353 0 9.876 0" fill-rule="evenodd"></path>
  </symbol>
  <symbol xmlns="http://www.w3.org/2000/svg" fill="currentcolor" viewBox="0 -960 960 960" id="play-circle">
    <path d="m380-300 280-180-280-180zM480-80q-83 0-156-31.5T197-197t-85.5-127T80-480t31.5-156T197-763t127-85.5T480-880t156 31.5T763-763t85.5 127T880-480t-31.5 156T763-197t-127 85.5T480-80m0-80q134 0 227-93t93-227-93-227-227-93-227 93-93 227 93 227 227 93m0-320"/>
  </symbol>
  <symbol fill="none" xmlns="http://www.w3.org/2000/svg" viewBox="0 0 64 64" id="rs-school">
    <circle cx="32" cy="32" r="32" fill="#000"></circle>
    <path fill-rule="evenodd" clip-rule="evenodd" d="M13 21.51V42.5l6.307-.038v-8.515c.75 0 1.455.03 2.098.48.49.452.879 1.007 1.141 1.627l3.374 6.408H33c-1.404-2.795-2.53-6.33-4.945-8.452a6.3 6.3 0 0 0-1.644-.769 7.9 7.9 0 0 0 2.22-.833c1.755-1.07 2.76-3.027 2.713-5.07a5.9 5.9 0 0 0-.945-3.394c-1.473-2.256-4.465-2.523-6.933-2.434zm8.994 8.502H19.33v-4.314h2.773c1.377-.139 3.077.477 2.982 2.106.064 1.758-1.721 2.109-3.092 2.208" fill="#ffb749"></path>
    <path d="M39.477 35.089 33 35.467c.126 1.9 1.002 3.693 2.464 5.042q2.172 1.985 7.788 1.985c3.104.088 6.654-.68 8.569-3.337A6.08 6.08 0 0 0 53 35.564c.022-2.38-1.566-4.334-3.696-5.25A29.7 29.7 0 0 0 42.92 28.5a5.8 5.8 0 0 1-2.278-.743c-.738-.497-.564-1.53.093-1.997 1.873-1.24 4.895-.206 5.126 2.143l6.424-.34c-.115-1.795-1.1-3.508-2.65-4.605a11.9 11.9 0 0 0-6.436-1.437 15.1 15.1 0 0 0-5.43.792c-2.16.8-3.94 2.751-3.935 5.14-.04 1.485.682 2.956 1.921 3.91a15.6 15.6 0 0 0 6.384 2.435 9 9 0 0 1 3.483 1.218c.966.715.959 2.151-.026 2.874-1.088.763-2.693.852-3.914.357-1.31-.531-2.077-1.769-2.205-3.158" fill="#ffb749"></path>
  </symbol>
  <symbol xmlns="http://www.w3.org/2000/svg" fill="currentcolor" viewBox="0 -960 960 960" id="search-off">
    <path d="M138.5-138.5Q80-197 80-280t58.5-141.5T280-480t141.5 58.5T480-280t-58.5 141.5T280-80t-141.5-58.5M824-120 568-376q-12-13-25.5-26.5T516-428q38-24 61-64t23-88q0-75-52.5-127.5T420-760t-127.5 52.5T240-580q0 6 .5 11.5T242-557q-18 2-39.5 8T164-535q-2-11-3-22t-1-23q0-109 75.5-184.5T420-840t184.5 75.5T680-580q0 43-13.5 81.5T629-428l251 252zm-615-61 71-71 70 71 29-28-71-71 71-71-28-28-71 71-71-71-28 28 71 71-71 71z"></path>
  </symbol>
  <symbol xmlns="http://www.w3.org/2000/svg" fill="currentcolor" viewBox="0 -960 960 960" id="search">
    <path d="M784-120 532-372q-30 24-69 38t-83 14q-109 0-184.5-75.5T120-580t75.5-184.5T380-840t184.5 75.5T640-580q0 44-14 83t-38 69l252 252zM380-400q75 0 127.5-52.5T560-580t-52.5-127.5T380-760t-127.5 52.5T200-580t52.5 127.5T380-400"></path>
  </symbol>
  <symbol xmlns="http://www.w3.org/2000/svg" fill="currentcolor" viewBox="0 -960 960 960" id="sentiment-excited">
    <path d="M320-480v80q0 66 47 113t113 47 113-47 47-113v-80zm160 180q-42 0-71-29t-29-71v-20h200v20q0 42-29 71t-71 29M272.5-652.5Q243-625 231-577l58 14q6-26 20-41.5t31-15.5 31 15.5 20 41.5l58-14q-12-48-41.5-75.5T340-680t-67.5 27.5m280 0Q523-625 511-577l58 14q6-26 20-41.5t31-15.5 31 15.5 20 41.5l58-14q-12-48-41.5-75.5T620-680t-67.5 27.5M324-111.5Q251-143 197-197t-85.5-127T80-480t31.5-156T197-763t127-85.5T480-880t156 31.5T763-763t85.5 127T880-480t-31.5 156T763-197t-127 85.5T480-80t-156-31.5M707-253q93-93 93-227t-93-227-227-93-227 93-93 227 93 227 227 93 227-93"></path>
  </symbol>
  <symbol xmlns="http://www.w3.org/2000/svg" fill="currentcolor" viewBox="0 -960 960 960" id="shopping-cart">
    <path d="M223.5-103.5Q200-127 200-160t23.5-56.5T280-240t56.5 23.5T360-160t-23.5 56.5T280-80t-56.5-23.5m400 0Q600-127 600-160t23.5-56.5T680-240t56.5 23.5T760-160t-23.5 56.5T680-80t-56.5-23.5M246-720l96 200h280l110-200zm-38-80h590q23 0 35 20.5t1 41.5L692-482q-11 20-29.5 31T622-440H324l-44 80h480v80H280q-45 0-68-39.5t-2-78.5l54-98-144-304H40v-80h130zm134 280h280z"></path>
  </symbol>
  <symbol xmlns="http://www.w3.org/2000/svg" fill="currentcolor" viewBox="0 -960 960 960" id="store">
    <path d="M160-720v-80h640v80zm0 560v-240h-40v-80l40-200h640l40 200v80h-40v240h-80v-240H560v240zm80-80h240v-160H240zm-38-240h556zm0 0h556l-24-120H226z"></path>
  </symbol>
  <symbol xmlns="http://www.w3.org/2000/svg" viewBox="0 0 24 24" id="twitter">
    <path fill-rule="evenodd" clip-rule="evenodd" d="M19.783 3.918a5 5 0 0 0 .79-.249c.28-.12.51-.263.876-.504A1 1 0 0 1 23 4c0 1.08-.135 1.967-.447 2.746a5.5 5.5 0 0 1-1.071 1.674c-.187 3.363-1.16 6.004-2.648 8.005-1.543 2.074-3.595 3.402-5.759 4.146-2.157.741-4.436.907-6.478.656-2.029-.25-3.904-.921-5.211-1.938a1 1 0 0 1 .755-1.78c1.286.185 2.524-.108 3.542-.526q-.301-.165-.565-.348c-.927-.643-1.676-1.514-2.012-2.188A1 1 0 0 1 3.4 13.2c-1.353-1.119-1.9-2.664-1.9-3.7a1 1 0 0 1 .723-.96 7 7 0 0 1-.24-.887c-.266-1.287-.242-2.74.047-3.895A1 1 0 0 1 3.866 3.5c1.078 1.868 3.065 3.01 4.915 3.686.87.318 1.675.52 2.279.645.13-1.22.47-2.227.994-3.027a4.6 4.6 0 0 1 2.686-1.957c1.783-.48 3.76.067 5.043 1.071m-9.035 5.89a18 18 0 0 1-2.654-.744c-1.357-.496-2.933-1.27-4.253-2.468q.035.331.1.652c.222 1.071.633 1.671 1.006 1.857a1 1 0 0 1 .49 1.242c-.239.648-.869.7-1.441.558.46.69 1.288 1.378 2.668 1.609a1 1 0 0 1 .032 1.967l-.87.174q.2.174.43.335c.698.483 1.397.69 2.001.54a1 1 0 0 1 .883 1.738c-.644.536-1.396.966-2.15 1.323-.353.168-.749.333-1.178.479q.496.106 1.029.172c1.77.217 3.741.07 5.584-.563 1.836-.631 3.534-1.74 4.804-3.448 1.268-1.705 2.153-4.064 2.272-7.268a1 1 0 0 1 .292-.67c.45-.45.821-.965 1.004-1.579-.32.1-.68.186-1.11.268a1 1 0 0 1-.894-.275c-.765-.764-2.277-1.267-3.533-.929A2.6 2.6 0 0 0 13.727 5.9C13.315 6.53 13 7.51 13 9a1 1 0 0 1-.33.743c-.498.45-1.336.184-1.922.066" fill="currentcolor"></path>
  </symbol>
  <symbol xmlns="http://www.w3.org/2000/svg" fill="currentcolor" viewBox="0 -960 960 960" id="verified-user">
    <path d="m438-338 226-226-57-57-169 169-84-84-57 57zm42 258q-139-35-229.5-159.5T160-516v-244l320-120 320 120v244q0 152-90.5 276.5T480-80m0-84q104-33 172-132t68-220v-189l-240-90-240 90v189q0 121 68 220t172 132m0-316"></path>
  </symbol>
  <symbol xmlns="http://www.w3.org/2000/svg" fill="currentcolor" viewBox="0 -960 960 960" id="visibility-off">
    <path d="m644-428-58-58q9-47-27-88t-93-32l-58-58q17-8 34.5-12t37.5-4q75 0 127.5 52.5T660-500q0 20-4 37.5T644-428m128 126-58-56q38-29 67.5-63.5T832-500q-50-101-143.5-160.5T480-720q-29 0-57 4t-55 12l-62-62q41-17 84-25.5t90-8.5q151 0 269 83.5T920-500q-23 59-60.5 109.5T772-302m20 246L624-222q-35 11-70.5 16.5T480-200q-151 0-269-83.5T40-500q21-53 53-98.5t73-81.5L56-792l56-56 736 736zM222-624q-29 26-53 57t-41 67q50 101 143.5 160.5T480-280q20 0 39-2.5t39-5.5l-36-38q-11 3-21 4.5t-21 1.5q-75 0-127.5-52.5T300-500q0-11 1.5-21t4.5-21zm168 168"></path>
  </symbol>
  <symbol xmlns="http://www.w3.org/2000/svg" fill="currentcolor" viewBox="0 -960 960 960" id="visibility">
    <path d="M607.5-372.5Q660-425 660-500t-52.5-127.5T480-680t-127.5 52.5T300-500t52.5 127.5T480-320t127.5-52.5m-204-51Q372-455 372-500t31.5-76.5T480-608t76.5 31.5T588-500t-31.5 76.5T480-392t-76.5-31.5M214-281.5Q94-363 40-500q54-137 174-218.5T480-800t266 81.5T920-500q-54 137-174 218.5T480-200t-266-81.5m473.5-58Q782-399 832-500q-50-101-144.5-160.5T480-720t-207.5 59.5T128-500q50 101 144.5 160.5T480-280t207.5-59.5"></path>
  </symbol>
</svg>
